<svg width="126" height="13" viewBox="0 0 126 13" fill="none" xmlns="http://www.w3.org/2000/svg">
<path d="M1.03409 12.478V10.9553L5.07386 6.99507C5.46023 6.60492 5.7822 6.25833 6.03977 5.9553C6.29735 5.65227 6.49053 5.35871 6.61932 5.07462C6.74811 4.79053 6.8125 4.4875 6.8125 4.16553C6.8125 3.7981 6.72917 3.48371 6.5625 3.22235C6.39583 2.95719 6.16667 2.75265 5.875 2.60871C5.58333 2.46477 5.25189 2.3928 4.88068 2.3928C4.49811 2.3928 4.16288 2.47235 3.875 2.63144C3.58712 2.78674 3.36364 3.00833 3.20455 3.29621C3.04924 3.58409 2.97159 3.92689 2.97159 4.32462H0.965909C0.965909 3.58598 1.13447 2.94394 1.47159 2.39848C1.80871 1.85303 2.27273 1.43068 2.86364 1.13144C3.45833 0.832194 4.14015 0.682572 4.90909 0.682572C5.68939 0.682572 6.375 0.828406 6.96591 1.12007C7.55682 1.41174 8.01515 1.81136 8.34091 2.31894C8.67045 2.82651 8.83523 3.40606 8.83523 4.05757C8.83523 4.49318 8.75189 4.92121 8.58523 5.34166C8.41856 5.76212 8.125 6.22803 7.70455 6.73939C7.28788 7.25075 6.70265 7.87007 5.94886 8.59735L3.94318 10.6371V10.7167H9.01136V12.478H1.03409ZM15.2727 12.6996C14.3371 12.6996 13.5341 12.4629 12.8636 11.9894C12.197 11.5121 11.6837 10.8246 11.3239 9.92689C10.9678 9.02538 10.7898 7.94015 10.7898 6.67121C10.7936 5.40227 10.9735 4.32272 11.3295 3.43257C11.6894 2.53863 12.2027 1.85682 12.8693 1.38712C13.5398 0.917421 14.3409 0.682572 15.2727 0.682572C16.2045 0.682572 17.0057 0.917421 17.6761 1.38712C18.3466 1.85682 18.8598 2.53863 19.2159 3.43257C19.5758 4.32651 19.7557 5.40606 19.7557 6.67121C19.7557 7.94394 19.5758 9.03106 19.2159 9.93257C18.8598 10.8303 18.3466 11.5159 17.6761 11.9894C17.0095 12.4629 16.2083 12.6996 15.2727 12.6996ZM15.2727 10.9212C16 10.9212 16.5739 10.5633 16.9943 9.84735C17.4186 9.12765 17.6307 8.06894 17.6307 6.67121C17.6307 5.74697 17.5341 4.97045 17.3409 4.34166C17.1477 3.71288 16.875 3.23939 16.5227 2.92121C16.1705 2.59924 15.7538 2.43825 15.2727 2.43825C14.5492 2.43825 13.9773 2.7981 13.5568 3.5178C13.1364 4.23371 12.9242 5.28485 12.9205 6.67121C12.9167 7.59924 13.0095 8.37954 13.1989 9.01212C13.392 9.64469 13.6648 10.122 14.017 10.4439C14.3693 10.7621 14.7879 10.9212 15.2727 10.9212ZM21.6435 12.478V10.9553L25.6832 6.99507C26.0696 6.60492 26.3916 6.25833 26.6491 5.9553C26.9067 5.65227 27.0999 5.35871 27.2287 5.07462C27.3575 4.79053 27.4219 4.4875 27.4219 4.16553C27.4219 3.7981 27.3385 3.48371 27.1719 3.22235C27.0052 2.95719 26.776 2.75265 26.4844 2.60871C26.1927 2.46477 25.8613 2.3928 25.4901 2.3928C25.1075 2.3928 24.7723 2.47235 24.4844 2.63144C24.1965 2.78674 23.973 3.00833 23.8139 3.29621C23.6586 3.58409 23.581 3.92689 23.581 4.32462H21.5753C21.5753 3.58598 21.7438 2.94394 22.081 2.39848C22.4181 1.85303 22.8821 1.43068 23.473 1.13144C24.0677 0.832194 24.7495 0.682572 25.5185 0.682572C26.2988 0.682572 26.9844 0.828406 27.5753 1.12007C28.1662 1.41174 28.6245 1.81136 28.9503 2.31894C29.2798 2.82651 29.4446 3.40606 29.4446 4.05757C29.4446 4.49318 29.3613 4.92121 29.1946 5.34166C29.0279 5.76212 28.7344 6.22803 28.3139 6.73939C27.8973 7.25075 27.312 7.87007 26.5582 8.59735L24.5526 10.6371V10.7167H29.6207V12.478H21.6435ZM31.581 12.478V10.9553L35.6207 6.99507C36.0071 6.60492 36.3291 6.25833 36.5866 5.9553C36.8442 5.65227 37.0374 5.35871 37.1662 5.07462C37.295 4.79053 37.3594 4.4875 37.3594 4.16553C37.3594 3.7981 37.276 3.48371 37.1094 3.22235C36.9427 2.95719 36.7135 2.75265 36.4219 2.60871C36.1302 2.46477 35.7988 2.3928 35.4276 2.3928C35.045 2.3928 34.7098 2.47235 34.4219 2.63144C34.134 2.78674 33.9105 3.00833 33.7514 3.29621C33.5961 3.58409 33.5185 3.92689 33.5185 4.32462H31.5128C31.5128 3.58598 31.6813 2.94394 32.0185 2.39848C32.3556 1.85303 32.8196 1.43068 33.4105 1.13144C34.0052 0.832194 34.687 0.682572 35.456 0.682572C36.2363 0.682572 36.9219 0.828406 37.5128 1.12007C38.1037 1.41174 38.562 1.81136 38.8878 2.31894C39.2173 2.82651 39.3821 3.40606 39.3821 4.05757C39.3821 4.49318 39.2988 4.92121 39.1321 5.34166C38.9654 5.76212 38.6719 6.22803 38.2514 6.73939C37.8348 7.25075 37.2495 7.87007 36.4957 8.59735L34.4901 10.6371V10.7167H39.5582V12.478H31.581ZM45.6009 12.478V0.841663H53.0554V2.60871H47.7088V5.7678H52.544V7.53485H47.7088V12.478H45.6009ZM54.7599 12.478V3.75075H56.7543V5.2053H56.8452C57.0043 4.70151 57.277 4.31325 57.6634 4.04053C58.0535 3.76401 58.4986 3.62575 58.9986 3.62575C59.1122 3.62575 59.2391 3.63144 59.3793 3.6428C59.5232 3.65038 59.6425 3.66363 59.7372 3.68257V5.57462C59.6501 5.54431 59.5118 5.5178 59.3224 5.49507C59.1368 5.46856 58.9569 5.4553 58.7827 5.4553C58.4077 5.4553 58.0705 5.53674 57.7713 5.69962C57.4759 5.85871 57.2429 6.0803 57.0724 6.36439C56.902 6.64848 56.8168 6.97613 56.8168 7.34735V12.478H54.7599ZM64.608 12.6485C63.733 12.6485 62.9773 12.4667 62.3409 12.103C61.7083 11.7356 61.2216 11.2167 60.8807 10.5462C60.5398 9.87197 60.3693 9.07841 60.3693 8.16553C60.3693 7.2678 60.5398 6.47992 60.8807 5.80189C61.2254 5.12007 61.7064 4.58977 62.3239 4.21098C62.9413 3.82841 63.6667 3.63712 64.5 3.63712C65.0379 3.63712 65.5455 3.72424 66.0227 3.89848C66.5038 4.06894 66.928 4.33409 67.2955 4.69394C67.6667 5.05378 67.9583 5.51212 68.1705 6.06894C68.3826 6.62197 68.4886 7.28106 68.4886 8.04621V8.67689H61.3352V7.29053H66.517C66.5133 6.89659 66.428 6.54621 66.2614 6.23939C66.0947 5.92878 65.8617 5.68447 65.5625 5.50644C65.267 5.32841 64.9223 5.23939 64.5284 5.23939C64.108 5.23939 63.7386 5.34166 63.4205 5.54621C63.1023 5.74697 62.8542 6.01212 62.6761 6.34166C62.5019 6.66742 62.4129 7.02538 62.4091 7.41553V8.62575C62.4091 9.13333 62.5019 9.56894 62.6875 9.93257C62.8731 10.2924 63.1326 10.5689 63.4659 10.7621C63.7992 10.9515 64.1894 11.0462 64.6364 11.0462C64.9356 11.0462 65.2064 11.0045 65.4489 10.9212C65.6913 10.8341 65.9015 10.7072 66.0795 10.5405C66.2576 10.3739 66.392 10.1674 66.483 9.92121L68.4034 10.1371C68.2822 10.6447 68.0511 11.0879 67.7102 11.4667C67.3731 11.8417 66.9413 12.1333 66.4148 12.3417C65.8883 12.5462 65.286 12.6485 64.608 12.6485ZM77.1264 6.05757L75.2514 6.26212C75.1984 6.07272 75.1056 5.89469 74.973 5.72803C74.8442 5.56136 74.67 5.42689 74.4503 5.32462C74.2306 5.22235 73.9616 5.17121 73.6435 5.17121C73.2154 5.17121 72.8556 5.26401 72.5639 5.44962C72.276 5.63522 72.134 5.87575 72.1378 6.17121C72.134 6.425 72.2268 6.63144 72.4162 6.79053C72.6094 6.94962 72.9276 7.0803 73.3707 7.18257L74.8594 7.50075C75.6851 7.67878 76.2988 7.96098 76.7003 8.34735C77.1056 8.73371 77.3101 9.23939 77.3139 9.86439C77.3101 10.4136 77.1491 10.8985 76.831 11.3189C76.5166 11.7356 76.0791 12.0614 75.5185 12.2962C74.9579 12.5311 74.3139 12.6485 73.5866 12.6485C72.5185 12.6485 71.6586 12.425 71.0071 11.978C70.3556 11.5273 69.9673 10.9004 69.8423 10.0973L71.848 9.90416C71.9389 10.2981 72.1321 10.5955 72.4276 10.7962C72.723 10.997 73.1075 11.0973 73.581 11.0973C74.0696 11.0973 74.4616 10.997 74.7571 10.7962C75.0563 10.5955 75.206 10.3473 75.206 10.0519C75.206 9.80189 75.1094 9.59545 74.9162 9.43257C74.7268 9.26969 74.4313 9.14469 74.0298 9.05757L72.5412 8.74507C71.7041 8.57083 71.0848 8.27727 70.6832 7.86439C70.2817 7.44772 70.0829 6.92121 70.0866 6.28485C70.0829 5.74697 70.2287 5.28106 70.5241 4.88712C70.8234 4.48939 71.2382 4.18257 71.7685 3.96666C72.3026 3.74697 72.9181 3.63712 73.6151 3.63712C74.6378 3.63712 75.4427 3.85492 76.0298 4.29053C76.6207 4.72613 76.9863 5.31515 77.1264 6.05757ZM81.0668 7.36439V12.478H79.0099V0.841663H81.0213V5.23371H81.1236C81.3281 4.74128 81.6444 4.35303 82.0724 4.06894C82.5043 3.78106 83.0535 3.63712 83.7202 3.63712C84.3262 3.63712 84.8546 3.76401 85.3054 4.0178C85.7562 4.27159 86.1046 4.6428 86.3509 5.13144C86.6009 5.62007 86.7259 6.21666 86.7259 6.92121V12.478H84.669V7.23939C84.669 6.65227 84.5175 6.19583 84.2145 5.87007C83.9152 5.54053 83.4948 5.37575 82.9531 5.37575C82.5895 5.37575 82.2637 5.4553 81.9759 5.61439C81.6918 5.76969 81.4683 5.99507 81.3054 6.29053C81.1463 6.58598 81.0668 6.94394 81.0668 7.36439ZM88.9134 12.478V0.841663H96.3679V2.60871H91.0213V5.7678H95.8565V7.53485H91.0213V12.478H88.9134ZM100.631 12.6542C100.078 12.6542 99.5795 12.5557 99.1364 12.3587C98.697 12.158 98.3485 11.8625 98.0909 11.4723C97.8371 11.0822 97.7102 10.6011 97.7102 10.0292C97.7102 9.53674 97.8011 9.12954 97.983 8.80757C98.1648 8.4856 98.4129 8.22803 98.7273 8.03485C99.0417 7.84166 99.3958 7.69583 99.7898 7.59735C100.188 7.49507 100.598 7.42121 101.023 7.37575C101.534 7.32272 101.949 7.27538 102.267 7.23371C102.585 7.18825 102.816 7.12007 102.96 7.02916C103.108 6.93447 103.182 6.78863 103.182 6.59166V6.55757C103.182 6.12954 103.055 5.7981 102.801 5.56325C102.547 5.32841 102.182 5.21098 101.705 5.21098C101.201 5.21098 100.801 5.32083 100.506 5.54053C100.214 5.76022 100.017 6.01969 99.9148 6.31894L97.9943 6.04621C98.1458 5.51591 98.3958 5.07272 98.7443 4.71666C99.0928 4.35681 99.5189 4.08788 100.023 3.90985C100.527 3.72803 101.083 3.63712 101.693 3.63712C102.114 3.63712 102.532 3.68636 102.949 3.78485C103.366 3.88333 103.746 4.04621 104.091 4.27348C104.436 4.49697 104.712 4.80189 104.92 5.18825C105.133 5.57462 105.239 6.05757 105.239 6.63712V12.478H103.261V11.2792H103.193C103.068 11.5216 102.892 11.7489 102.665 11.961C102.441 12.1693 102.159 12.3379 101.818 12.4667C101.481 12.5917 101.085 12.6542 100.631 12.6542ZM101.165 11.1428C101.578 11.1428 101.936 11.0614 102.239 10.8985C102.542 10.7318 102.775 10.5121 102.938 10.2394C103.104 9.96666 103.188 9.66932 103.188 9.34735V8.31894C103.123 8.37197 103.013 8.42121 102.858 8.46666C102.706 8.51212 102.536 8.55189 102.347 8.58598C102.157 8.62007 101.97 8.65038 101.784 8.67689C101.598 8.70341 101.438 8.72613 101.301 8.74507C100.994 8.78674 100.72 8.85492 100.477 8.94962C100.235 9.04432 100.044 9.17689 99.9034 9.34735C99.7633 9.51401 99.6932 9.72992 99.6932 9.99507C99.6932 10.3739 99.8314 10.6598 100.108 10.853C100.384 11.0462 100.737 11.1428 101.165 11.1428ZM107.307 12.478V3.75075H109.301V5.2053H109.392C109.551 4.70151 109.824 4.31325 110.21 4.04053C110.6 3.76401 111.045 3.62575 111.545 3.62575C111.659 3.62575 111.786 3.63144 111.926 3.6428C112.07 3.65038 112.189 3.66363 112.284 3.68257V5.57462C112.197 5.54431 112.059 5.5178 111.869 5.49507C111.684 5.46856 111.504 5.4553 111.33 5.4553C110.955 5.4553 110.617 5.53674 110.318 5.69962C110.023 5.85871 109.79 6.0803 109.619 6.36439C109.449 6.64848 109.364 6.97613 109.364 7.34735V12.478H107.307ZM113.651 12.478V3.75075H115.616V5.23371H115.719C115.901 4.73371 116.202 4.34356 116.622 4.06325C117.043 3.77916 117.545 3.63712 118.128 3.63712C118.719 3.63712 119.217 3.78106 119.622 4.06894C120.031 4.35303 120.319 4.74128 120.486 5.23371H120.577C120.77 4.74886 121.096 4.3625 121.554 4.07462C122.016 3.78295 122.563 3.63712 123.196 3.63712C123.999 3.63712 124.654 3.89091 125.162 4.39848C125.67 4.90606 125.923 5.64659 125.923 6.62007V12.478H123.861V6.93825C123.861 6.39659 123.717 6.00075 123.429 5.75075C123.141 5.49697 122.789 5.37007 122.372 5.37007C121.876 5.37007 121.488 5.52538 121.207 5.83598C120.931 6.1428 120.793 6.54242 120.793 7.03485V12.478H118.776V6.85303C118.776 6.40227 118.639 6.04242 118.366 5.77348C118.098 5.50454 117.745 5.37007 117.31 5.37007C117.014 5.37007 116.745 5.44583 116.503 5.59735C116.26 5.74507 116.067 5.9553 115.923 6.22803C115.779 6.49697 115.707 6.81136 115.707 7.17121V12.478H113.651Z" fill="#111111" fill-opacity="0.5"/>
</svg>
