<svg width="42" height="43" viewBox="0 0 42 43" fill="none" xmlns="http://www.w3.org/2000/svg">
<path d="M24.85 5.28418C22.7034 5.28418 20.6447 6.13691 19.1269 7.65478C17.609 9.17266 16.7562 11.2313 16.7562 13.3779V17.8842H12.425C12.2075 17.8842 12.0312 18.0605 12.0312 18.2779V24.2279C12.0312 24.4454 12.2075 24.6217 12.425 24.6217H16.7562V36.8279C16.7562 37.0454 16.9325 37.2217 17.15 37.2217H23.1C23.3175 37.2217 23.4937 37.0454 23.4937 36.8279V24.6217H27.8634C28.044 24.6217 28.2015 24.4987 28.2454 24.3234L29.7329 18.3734C29.795 18.1249 29.607 17.8842 29.3509 17.8842H23.4937V13.3779C23.4937 13.0182 23.6366 12.6733 23.891 12.4189C24.1453 12.1646 24.4903 12.0217 24.85 12.0217H29.4C29.6175 12.0217 29.7937 11.8454 29.7937 11.6279V5.67793C29.7937 5.46047 29.6175 5.28418 29.4 5.28418H24.85Z" fill="#111111" fill-opacity="0.6"/>
</svg>
