<svg width="232" height="48" viewBox="0 0 232 48" fill="none" xmlns="http://www.w3.org/2000/svg">
<path d="M43.576 6.208C44.472 6.336 45.08 6.608 45.4 7.024C45.752 7.44 45.928 7.984 45.928 8.656C45.928 10.864 44.744 11.888 42.376 11.728L40.696 11.584C38.808 11.424 36.92 11.296 35.032 11.2C33.176 11.104 31.224 11.056 29.176 11.056H27.016C26.632 15.792 26.232 20.112 25.816 24.016L34.072 23.872C35.256 23.872 36.04 24.08 36.424 24.496C36.84 24.912 37.048 25.472 37.048 26.176C37.048 27.264 36.728 28.128 36.088 28.768C35.448 29.376 34.536 29.68 33.352 29.68H25.144L24.856 31.744C24.184 37.024 22.744 40.784 20.536 43.024C18.36 45.264 15.352 46.384 11.512 46.384C9.336 46.384 7.336 45.92 5.512 44.992C3.688 44.032 2.344 42.88 1.48 41.536C1.128 40.992 0.952 40.336 0.952 39.568C0.952 38.8 1.128 38.128 1.48 37.552C1.864 36.976 2.328 36.688 2.872 36.688C3.256 36.688 3.624 36.816 3.976 37.072C4.36 37.328 4.84 37.824 5.416 38.56C6.952 40.576 8.856 41.584 11.128 41.584C12.952 41.584 14.472 40.848 15.688 39.376C16.936 37.872 17.736 35.52 18.088 32.32L18.376 29.68H16.072C15.336 29.68 14.696 29.472 14.152 29.056C13.64 28.64 13.384 28.048 13.384 27.28C13.384 26.288 13.64 25.536 14.152 25.024C14.664 24.48 15.416 24.208 16.408 24.208C17.304 24.208 18.184 24.192 19.048 24.16C19.432 20.64 19.848 16.368 20.296 11.344C16.84 11.664 14.408 12.224 13 13.024C11.592 13.824 10.888 15.008 10.888 16.576C10.888 17.664 11.208 18.704 11.848 19.696C12.04 19.984 12.136 20.272 12.136 20.56C12.136 21.136 11.816 21.648 11.176 22.096C10.536 22.512 9.816 22.72 9.016 22.72C8.152 22.72 7.416 22.464 6.808 21.952C6.424 21.632 6.056 20.976 5.704 19.984C5.352 18.992 5.176 17.888 5.176 16.672C5.176 12.704 7.208 9.824 11.272 8.032C15.368 6.24 21.336 5.344 29.176 5.344C34.616 5.344 39.416 5.632 43.576 6.208ZM40.8839 46.24C39.6679 46.24 38.8039 45.6 38.2919 44.32C37.8119 43.04 37.5719 40.992 37.5719 38.176C37.5719 34.016 38.1639 30.064 39.3479 26.32C39.6359 25.392 40.0999 24.72 40.7399 24.304C41.4119 23.856 42.3399 23.632 43.5239 23.632C44.1639 23.632 44.6119 23.712 44.8679 23.872C45.1239 24.032 45.2519 24.336 45.2519 24.784C45.2519 25.296 45.0119 26.448 44.5319 28.24C44.2119 29.52 43.9559 30.64 43.7639 31.6C43.5719 32.56 43.4119 33.744 43.2839 35.152C44.3399 32.4 45.5239 30.16 46.8359 28.432C48.1479 26.704 49.4279 25.472 50.6759 24.736C51.9559 24 53.1239 23.632 54.1799 23.632C56.2599 23.632 57.2999 24.672 57.2999 26.752C57.2999 27.168 57.1559 28.176 56.8679 29.776C56.6119 31.056 56.4839 31.856 56.4839 32.176C56.4839 33.296 56.8839 33.856 57.6839 33.856C58.5799 33.856 59.7319 33.152 61.1399 31.744C61.5559 31.328 61.9879 31.12 62.4359 31.12C62.8519 31.12 63.1719 31.312 63.3959 31.696C63.6519 32.048 63.7799 32.528 63.7799 33.136C63.7799 34.32 63.4599 35.248 62.8199 35.92C61.9239 36.848 60.8679 37.648 59.6519 38.32C58.4679 38.96 57.2039 39.28 55.8599 39.28C54.1639 39.28 52.8679 38.848 51.9719 37.984C51.1079 37.12 50.6759 35.952 50.6759 34.48C50.6759 34 50.7239 33.52 50.8199 33.04C50.8839 32.4 50.9159 31.968 50.9159 31.744C50.9159 31.232 50.7399 30.976 50.3879 30.976C49.9079 30.976 49.2679 31.52 48.4679 32.608C47.6999 33.664 46.9319 35.072 46.1639 36.832C45.3959 38.592 44.7719 40.448 44.2919 42.4C43.9399 43.904 43.5239 44.928 43.0439 45.472C42.5959 45.984 41.8759 46.24 40.8839 46.24ZM80.7276 35.296C81.1436 35.296 81.4636 35.488 81.6876 35.872C81.9436 36.256 82.0716 36.784 82.0716 37.456C82.0716 38.736 81.7676 39.728 81.1596 40.432C79.9756 41.872 78.2956 43.2 76.1196 44.416C73.9756 45.632 71.6716 46.24 69.2076 46.24C65.8476 46.24 63.2396 45.328 61.3836 43.504C59.5276 41.68 58.5996 39.184 58.5996 36.016C58.5996 33.808 59.0636 31.76 59.9916 29.872C60.9196 27.952 62.1996 26.432 63.8316 25.312C65.4956 24.192 67.3676 23.632 69.4476 23.632C71.3036 23.632 72.7916 24.192 73.9116 25.312C75.0316 26.4 75.5916 27.888 75.5916 29.776C75.5916 31.984 74.7916 33.888 73.1916 35.488C71.6236 37.056 68.9516 38.304 65.1756 39.232C65.9756 40.704 67.4956 41.44 69.7356 41.44C71.1756 41.44 72.8076 40.944 74.6316 39.952C76.4876 38.928 78.0876 37.6 79.4316 35.968C79.8156 35.52 80.2476 35.296 80.7276 35.296ZM68.6316 28.336C67.4476 28.336 66.4396 29.024 65.6076 30.4C64.8076 31.776 64.4076 33.44 64.4076 35.392V35.488C66.2956 35.04 67.7836 34.368 68.8716 33.472C69.9596 32.576 70.5036 31.536 70.5036 30.352C70.5036 29.744 70.3276 29.264 69.9756 28.912C69.6556 28.528 69.2076 28.336 68.6316 28.336ZM87.0914 47.296C85.4274 47.296 84.1474 46.912 83.2514 46.144C82.3874 45.376 81.9554 44.512 81.9554 43.552C81.9554 42.72 82.2594 42 82.8674 41.392C83.4754 40.784 84.3714 40.48 85.5554 40.48C85.9714 40.48 86.4514 40.528 86.9954 40.624C87.5714 40.688 88.0034 40.736 88.2914 40.768C88.2594 39.936 88.0674 39.152 87.7154 38.416C87.3954 37.68 86.9794 36.976 86.4674 36.304C85.9554 35.6 85.4754 34.992 85.0274 34.48C84.0354 36.368 83.0434 37.936 82.0514 39.184C81.0914 40.432 80.0354 41.616 78.8834 42.736C78.3074 43.312 77.6994 43.6 77.0594 43.6C76.5474 43.6 76.1314 43.424 75.8114 43.072C75.4914 42.688 75.3314 42.224 75.3314 41.68C75.3314 41.04 75.5554 40.448 76.0034 39.904L76.6274 39.136C78.3874 36.96 79.7154 35.168 80.6114 33.76C81.1554 32.832 81.7954 31.6 82.5314 30.064C83.2674 28.496 83.9874 26.88 84.6914 25.216C85.2994 23.808 86.5634 23.104 88.4834 23.104C89.3794 23.104 90.0034 23.184 90.3554 23.344C90.7074 23.504 90.8834 23.76 90.8834 24.112C90.8834 24.304 90.8194 24.608 90.6914 25.024C90.5634 25.44 90.3874 25.856 90.1634 26.272C89.5874 27.424 89.2994 28.4 89.2994 29.2C89.2994 29.68 89.4594 30.208 89.7794 30.784C90.1314 31.36 90.6594 32.08 91.3634 32.944C92.3874 34.288 93.1554 35.44 93.6674 36.4C94.2114 37.328 94.4834 38.352 94.4834 39.472C94.4834 39.792 94.4514 40.24 94.3874 40.816C95.9554 40.208 97.7954 38.592 99.9074 35.968C100.291 35.52 100.723 35.296 101.203 35.296C101.619 35.296 101.939 35.488 102.163 35.872C102.419 36.256 102.547 36.784 102.547 37.456C102.547 38.672 102.243 39.664 101.635 40.432C100.035 42.416 98.4994 43.776 97.0274 44.512C95.5874 45.216 93.7954 45.6 91.6514 45.664C90.3714 46.752 88.8514 47.296 87.0914 47.296ZM125.288 35.296C125.704 35.296 126.024 35.488 126.248 35.872C126.504 36.256 126.632 36.784 126.632 37.456C126.632 38.736 126.328 39.728 125.72 40.432C124.248 42.128 122.728 43.52 121.16 44.608C119.624 45.696 117.864 46.24 115.88 46.24C114.248 46.24 113.016 45.776 112.184 44.848C111.352 43.888 110.936 42.512 110.936 40.72C110.936 39.824 111.16 38.224 111.608 35.92C112.024 33.904 112.232 32.512 112.232 31.744C112.232 31.232 112.056 30.976 111.704 30.976C111.288 30.976 110.696 31.52 109.928 32.608C109.16 33.664 108.392 35.072 107.624 36.832C106.856 38.592 106.232 40.448 105.752 42.4C105.144 44.96 103.64 46.24 101.24 46.24C100.28 46.24 99.6398 45.904 99.3198 45.232C99.0318 44.528 98.8878 43.28 98.8878 41.488C98.8878 40.464 98.9038 39.648 98.9358 39.04L98.9838 35.2C98.9838 30.272 99.4798 25.136 100.472 19.792C101.496 14.448 102.984 9.968 104.936 6.352C106.92 2.704 109.288 0.879997 112.04 0.879997C113.512 0.879997 114.696 1.52 115.592 2.8C116.52 4.048 116.984 5.68 116.984 7.696C116.984 10.928 116.04 14.288 114.152 17.776C112.264 21.232 109.192 25.28 104.936 29.92C104.84 31.584 104.792 33.296 104.792 35.056C105.848 32.336 107.016 30.128 108.296 28.432C109.608 26.704 110.888 25.472 112.136 24.736C113.416 24 114.584 23.632 115.64 23.632C117.72 23.632 118.76 24.672 118.76 26.752C118.76 28 118.408 30.256 117.704 33.52C117.096 36.304 116.792 38.144 116.792 39.04C116.792 40.32 117.256 40.96 118.184 40.96C118.824 40.96 119.576 40.576 120.44 39.808C121.336 39.008 122.52 37.728 123.992 35.968C124.376 35.52 124.808 35.296 125.288 35.296ZM111.032 5.632C110.456 5.632 109.816 6.464 109.112 8.128C108.408 9.76 107.72 11.984 107.048 14.8C106.408 17.584 105.88 20.624 105.464 23.92C107.448 21.584 109.08 19.04 110.36 16.288C111.672 13.536 112.328 11.04 112.328 8.8C112.328 7.776 112.216 6.992 111.992 6.448C111.768 5.904 111.448 5.632 111.032 5.632ZM163.014 6.208C163.91 6.336 164.518 6.608 164.838 7.024C165.19 7.44 165.366 7.984 165.366 8.656C165.366 10.864 164.182 11.888 161.814 11.728L160.134 11.584C158.246 11.424 156.358 11.296 154.47 11.2C152.614 11.104 150.662 11.056 148.614 11.056H146.454C146.07 15.792 145.67 20.112 145.254 24.016L153.51 23.872C154.694 23.872 155.478 24.08 155.862 24.496C156.278 24.912 156.486 25.472 156.486 26.176C156.486 27.264 156.166 28.128 155.526 28.768C154.886 29.376 153.974 29.68 152.79 29.68H144.582L144.294 31.744C143.622 37.024 142.182 40.784 139.974 43.024C137.798 45.264 134.79 46.384 130.95 46.384C128.774 46.384 126.774 45.92 124.95 44.992C123.126 44.032 121.782 42.88 120.918 41.536C120.566 40.992 120.389 40.336 120.389 39.568C120.389 38.8 120.566 38.128 120.918 37.552C121.302 36.976 121.766 36.688 122.31 36.688C122.694 36.688 123.062 36.816 123.414 37.072C123.798 37.328 124.278 37.824 124.854 38.56C126.39 40.576 128.294 41.584 130.566 41.584C132.39 41.584 133.91 40.848 135.126 39.376C136.374 37.872 137.174 35.52 137.526 32.32L137.814 29.68H135.51C134.774 29.68 134.134 29.472 133.59 29.056C133.078 28.64 132.822 28.048 132.822 27.28C132.822 26.288 133.078 25.536 133.59 25.024C134.102 24.48 134.854 24.208 135.846 24.208C136.742 24.208 137.622 24.192 138.486 24.16C138.87 20.64 139.286 16.368 139.734 11.344C136.278 11.664 133.845 12.224 132.438 13.024C131.03 13.824 130.326 15.008 130.326 16.576C130.326 17.664 130.646 18.704 131.286 19.696C131.478 19.984 131.574 20.272 131.574 20.56C131.574 21.136 131.254 21.648 130.614 22.096C129.974 22.512 129.254 22.72 128.454 22.72C127.59 22.72 126.854 22.464 126.246 21.952C125.862 21.632 125.494 20.976 125.142 19.984C124.79 18.992 124.614 17.888 124.614 16.672C124.614 12.704 126.646 9.824 130.71 8.032C134.806 6.24 140.774 5.344 148.614 5.344C154.054 5.344 158.854 5.632 163.014 6.208ZM161.13 46.24C159.146 46.24 157.562 45.52 156.378 44.08C155.194 42.64 154.602 40.752 154.602 38.416C154.602 35.856 155.194 33.44 156.378 31.168C157.562 28.864 159.13 27.024 161.082 25.648C163.066 24.24 165.162 23.536 167.37 23.536C168.074 23.536 168.538 23.68 168.762 23.968C169.018 24.224 169.226 24.704 169.386 25.408C170.058 25.28 170.762 25.216 171.498 25.216C173.066 25.216 173.85 25.776 173.85 26.896C173.85 27.568 173.61 29.168 173.13 31.696C172.394 35.376 172.026 37.936 172.026 39.376C172.026 39.856 172.138 40.24 172.362 40.528C172.618 40.816 172.938 40.96 173.322 40.96C173.93 40.96 174.666 40.576 175.53 39.808C176.394 39.008 177.562 37.728 179.034 35.968C179.418 35.52 179.85 35.296 180.33 35.296C180.746 35.296 181.066 35.488 181.29 35.872C181.546 36.256 181.674 36.784 181.674 37.456C181.674 38.736 181.37 39.728 180.762 40.432C179.45 42.064 178.058 43.44 176.586 44.56C175.114 45.68 173.69 46.24 172.314 46.24C171.258 46.24 170.282 45.888 169.386 45.184C168.522 44.448 167.866 43.456 167.418 42.208C165.754 44.896 163.658 46.24 161.13 46.24ZM162.858 41.392C163.562 41.392 164.234 40.976 164.874 40.144C165.514 39.312 165.978 38.208 166.266 36.832L168.042 28C166.698 28.032 165.45 28.544 164.298 29.536C163.178 30.496 162.282 31.776 161.61 33.376C160.938 34.976 160.602 36.672 160.602 38.464C160.602 39.456 160.794 40.192 161.178 40.672C161.594 41.152 162.154 41.392 162.858 41.392ZM181.181 46.24C179.965 46.24 179.101 45.6 178.589 44.32C178.109 43.04 177.869 40.992 177.869 38.176C177.869 34.016 178.461 30.064 179.645 26.32C179.933 25.392 180.397 24.72 181.037 24.304C181.709 23.856 182.637 23.632 183.821 23.632C184.461 23.632 184.909 23.712 185.165 23.872C185.421 24.032 185.549 24.336 185.549 24.784C185.549 25.296 185.309 26.448 184.829 28.24C184.509 29.52 184.253 30.64 184.061 31.6C183.869 32.56 183.709 33.744 183.581 35.152C184.637 32.4 185.821 30.16 187.133 28.432C188.445 26.704 189.725 25.472 190.973 24.736C192.253 24 193.421 23.632 194.477 23.632C196.557 23.632 197.597 24.672 197.597 26.752C197.597 27.168 197.453 28.176 197.165 29.776C196.909 31.056 196.781 31.856 196.781 32.176C196.781 33.296 197.181 33.856 197.981 33.856C198.877 33.856 200.029 33.152 201.437 31.744C201.853 31.328 202.285 31.12 202.733 31.12C203.149 31.12 203.469 31.312 203.693 31.696C203.949 32.048 204.077 32.528 204.077 33.136C204.077 34.32 203.757 35.248 203.117 35.92C202.221 36.848 201.165 37.648 199.949 38.32C198.765 38.96 197.501 39.28 196.157 39.28C194.461 39.28 193.165 38.848 192.269 37.984C191.405 37.12 190.973 35.952 190.973 34.48C190.973 34 191.021 33.52 191.117 33.04C191.181 32.4 191.213 31.968 191.213 31.744C191.213 31.232 191.037 30.976 190.685 30.976C190.205 30.976 189.565 31.52 188.765 32.608C187.997 33.664 187.229 35.072 186.461 36.832C185.693 38.592 185.069 40.448 184.589 42.4C184.237 43.904 183.821 44.928 183.341 45.472C182.893 45.984 182.173 46.24 181.181 46.24ZM203.025 46.24C201.809 46.24 200.945 45.6 200.433 44.32C199.953 43.04 199.713 40.992 199.713 38.176C199.713 34.016 200.305 30.064 201.489 26.32C201.777 25.392 202.241 24.72 202.881 24.304C203.553 23.856 204.481 23.632 205.665 23.632C206.305 23.632 206.753 23.712 207.009 23.872C207.265 24.032 207.393 24.336 207.393 24.784C207.393 25.296 207.153 26.448 206.673 28.24C206.353 29.52 206.097 30.64 205.905 31.6C205.713 32.528 205.553 33.696 205.425 35.104C206.289 32.608 207.313 30.496 208.497 28.768C209.713 27.04 210.945 25.76 212.193 24.928C213.473 24.064 214.673 23.632 215.793 23.632C216.913 23.632 217.697 23.888 218.145 24.4C218.625 24.912 218.865 25.696 218.865 26.752C218.865 27.776 218.561 29.632 217.953 32.32C217.697 33.472 217.521 34.336 217.425 34.912C218.481 32.224 219.649 30.032 220.929 28.336C222.241 26.64 223.521 25.44 224.769 24.736C226.017 24 227.169 23.632 228.225 23.632C229.249 23.632 230.017 23.904 230.529 24.448C231.073 24.96 231.345 25.728 231.345 26.752C231.345 27.584 231.169 29.152 230.817 31.456C230.497 33.408 230.241 35.264 230.049 37.024C229.857 38.752 229.761 40.688 229.761 42.832C229.761 44.048 229.505 44.928 228.993 45.472C228.513 45.984 227.713 46.24 226.593 46.24C225.537 46.24 224.769 45.968 224.289 45.424C223.809 44.88 223.569 44.064 223.569 42.976C223.569 41.696 223.793 39.584 224.241 36.64C224.625 34.08 224.817 32.448 224.817 31.744C224.817 31.232 224.641 30.976 224.289 30.976C223.873 30.976 223.281 31.52 222.513 32.608C221.745 33.664 220.977 35.072 220.209 36.832C219.441 38.592 218.817 40.448 218.337 42.4C217.985 43.936 217.569 44.96 217.089 45.472C216.641 45.984 215.905 46.24 214.881 46.24C213.825 46.24 213.025 45.744 212.481 44.752C211.969 43.728 211.713 42.496 211.713 41.056C211.713 39.84 211.873 38.08 212.193 35.776C212.449 33.728 212.577 32.384 212.577 31.744C212.577 31.232 212.401 30.976 212.049 30.976C211.569 30.976 210.961 31.552 210.225 32.704C209.489 33.856 208.769 35.328 208.065 37.12C207.393 38.912 206.849 40.672 206.433 42.4C206.081 43.904 205.665 44.928 205.185 45.472C204.737 45.984 204.017 46.24 203.025 46.24Z" fill="#008000"/>
</svg>
