<svg width="42" height="43" viewBox="0 0 42 43" fill="none" xmlns="http://www.w3.org/2000/svg">
<path d="M21 15.5654C17.8589 15.5654 15.3125 18.1118 15.3125 21.2529C15.3125 24.394 17.8589 26.9404 21 26.9404C24.1411 26.9404 26.6875 24.394 26.6875 21.2529C26.6875 18.1118 24.1411 15.5654 21 15.5654Z" fill="#111111" fill-opacity="0.6"/>
<path fill-rule="evenodd" clip-rule="evenodd" d="M11.8467 5.64546C17.8809 4.97105 24.1192 4.97105 30.1534 5.64546C33.4756 6.01676 36.1551 8.63437 36.5451 11.9682C37.2666 18.137 37.2666 24.3688 36.5451 30.5376C36.1551 33.8714 33.4756 36.489 30.1534 36.8603C24.1192 37.5347 17.8809 37.5347 11.8467 36.8603C8.52451 36.489 5.84492 33.8714 5.455 30.5376C4.73351 24.3688 4.73351 18.137 5.455 11.9682C5.84492 8.63437 8.52451 6.01676 11.8467 5.64546ZM29.75 10.7529C28.7835 10.7529 28 11.5364 28 12.5029C28 13.4694 28.7835 14.2529 29.75 14.2529C30.7165 14.2529 31.5 13.4694 31.5 12.5029C31.5 11.5364 30.7165 10.7529 29.75 10.7529ZM12.6875 21.2529C12.6875 16.662 16.4091 12.9404 21 12.9404C25.5909 12.9404 29.3125 16.662 29.3125 21.2529C29.3125 25.8438 25.5909 29.5654 21 29.5654C16.4091 29.5654 12.6875 25.8438 12.6875 21.2529Z" fill="#111111" fill-opacity="0.6"/>
</svg>
