<svg width="42" height="43" viewBox="0 0 42 43" fill="none" xmlns="http://www.w3.org/2000/svg">
<path d="M8.3125 3.53418C6.25869 3.53418 4.59375 5.19912 4.59375 7.25293C4.59375 9.30674 6.25869 10.9717 8.3125 10.9717C10.3663 10.9717 12.0312 9.30674 12.0312 7.25293C12.0312 5.19912 10.3663 3.53418 8.3125 3.53418Z" fill="#111111" fill-opacity="0.6"/>
<path d="M4.8125 14.0342C4.69169 14.0342 4.59375 14.1321 4.59375 14.2529V37.0029C4.59375 37.1237 4.69169 37.2217 4.8125 37.2217H11.8125C11.9333 37.2217 12.0312 37.1237 12.0312 37.0029V14.2529C12.0312 14.1321 11.9333 14.0342 11.8125 14.0342H4.8125Z" fill="#111111" fill-opacity="0.6"/>
<path d="M16.1875 14.0342C16.0667 14.0342 15.9688 14.1321 15.9688 14.2529V37.0029C15.9688 37.1237 16.0667 37.2217 16.1875 37.2217H23.1875C23.3083 37.2217 23.4062 37.1237 23.4062 37.0029V24.7529C23.4062 23.8827 23.752 23.0481 24.3673 22.4327C24.9827 21.8174 25.8173 21.4717 26.6875 21.4717C27.5577 21.4717 28.3923 21.8174 29.0077 22.4327C29.623 23.0481 29.9688 23.8827 29.9688 24.7529V37.0029C29.9688 37.1237 30.0667 37.2217 30.1875 37.2217H37.1875C37.3083 37.2217 37.4062 37.1237 37.4062 37.0029V21.9184C37.4062 17.6716 33.7127 14.3492 29.4872 14.7333C28.1841 14.8518 26.8957 15.1757 25.6926 15.6913L23.4062 16.6712V14.2529C23.4062 14.1321 23.3083 14.0342 23.1875 14.0342H16.1875Z" fill="#111111" fill-opacity="0.6"/>
</svg>
