<svg width="20" height="22" viewBox="0 0 20 22" fill="none" xmlns="http://www.w3.org/2000/svg">
<path d="M10 0.39502C15.52 0.39502 20 5.04466 20 10.7737C20 16.5027 15.52 21.1523 10 21.1523C4.48 21.1523 0 16.5027 0 10.7737C0 5.04466 4.48 0.39502 10 0.39502ZM10 2.47075C5.58 2.47075 2 6.18631 2 10.7737C2 15.3611 5.58 19.0766 10 19.0766C14.42 19.0766 18 15.3611 18 10.7737C18 6.18631 14.42 2.47075 10 2.47075ZM10 5.58435C11.82 5.58435 13.413 6.59419 14.288 8.10429L12.574 9.17225C12.3043 8.70547 11.9213 8.32022 11.4634 8.05494C11.0055 7.78965 10.4885 7.65359 9.96412 7.66032C9.43971 7.66706 8.92617 7.81635 8.4747 8.09331C8.02323 8.37027 7.6496 8.76523 7.39107 9.2388C7.13254 9.71238 6.99815 10.248 7.00128 10.7923C7.00442 11.3366 7.14498 11.8705 7.40895 12.3409C7.67292 12.8112 8.05107 13.2015 8.5057 13.4728C8.96033 13.7442 9.47556 13.8871 10 13.8873C10.5181 13.8876 11.0275 13.7486 11.4785 13.4838C11.9294 13.2189 12.3065 12.8373 12.573 12.3761L14.288 13.4431C13.726 14.4172 12.8716 15.1732 11.8559 15.5949C10.8402 16.0167 9.71922 16.081 8.6649 15.778C7.61058 15.475 6.68114 14.8214 6.01914 13.9174C5.35713 13.0135 4.99912 11.9091 5 10.7737C5 7.90917 7.24 5.58435 10 5.58435Z" fill="#111111" fill-opacity="0.5"/>
</svg>
