<svg width="42" height="43" viewBox="0 0 42 43" fill="none" xmlns="http://www.w3.org/2000/svg">
<path d="M38.167 11.1506C38.2685 11.0092 38.1187 10.8267 37.9565 10.8896C36.8037 11.3364 35.5989 11.6379 34.37 11.7865C35.7383 10.969 36.7942 9.72463 37.3797 8.25136C37.4394 8.10128 37.2755 7.96726 37.1341 8.04533C35.8624 8.74767 34.4908 9.25342 33.066 9.54468C33.0064 9.55687 32.9449 9.53657 32.9031 9.49239C31.8339 8.36421 30.4265 7.61305 28.8922 7.35347C27.3256 7.08844 25.7154 7.35086 24.3141 8.09956C22.9128 8.84827 21.7996 10.0409 21.1492 11.4904C20.5307 12.8687 20.3638 14.405 20.6688 15.8805C20.6925 15.995 20.6029 16.1031 20.4862 16.0958C17.7141 15.9236 15.0057 15.1863 12.5276 13.9282C10.0559 12.6734 7.86714 10.9276 6.09461 8.7987C6.01594 8.70421 5.86685 8.71644 5.80953 8.82521C5.25798 9.87183 4.9692 11.0384 4.96999 12.224C4.96775 13.4041 5.25737 14.5666 5.81306 15.6077C6.36875 16.6489 7.17327 17.5365 8.15499 18.1915C7.11387 18.1632 6.09305 17.9058 5.16467 17.4391C5.04503 17.379 4.90152 17.4646 4.90774 17.5984C4.98013 19.1545 5.55143 20.7168 6.54029 21.9154C7.5926 23.1909 9.05319 24.0639 10.675 24.3865C10.0507 24.5765 9.40252 24.6766 8.74999 24.684C8.39484 24.6798 8.04039 24.6536 7.68867 24.6055C7.55827 24.5877 7.45178 24.7116 7.49743 24.835C7.98116 26.1431 8.83573 27.2846 9.95937 28.1178C11.1607 29.0085 12.6097 29.5027 14.105 29.5315C11.5801 31.5182 8.46278 32.6025 5.24999 32.6115C4.91986 32.6126 4.58988 32.6019 4.26068 32.5794C4.07517 32.5668 3.98985 32.814 4.14975 32.9089C7.2801 34.7665 10.858 35.7484 14.5075 35.744C17.2019 35.772 19.875 35.2628 22.3704 34.2461C24.8659 33.2295 27.1338 31.7258 29.0416 29.8229C30.9494 27.9199 32.4589 25.6559 33.482 23.1631C34.505 20.6702 35.0211 17.9985 35 15.304V14.4643C35 14.409 35.0261 14.3571 35.0702 14.3238C36.2572 13.4275 37.3011 12.3575 38.167 11.1506Z" fill="#111111" fill-opacity="0.6"/>
</svg>
